# xmcd CD database file
# Copyright (C) 1993-1998 Ti Kan
#
# Track frame offsets:
#	182
#	12990
#	31492
#	45902
#	59362
#	71955
#	86352
#	100197
#	111017
#	127595
#	142910
#	155120
#	170745
#	185182
#	198767
#	212722
#	226215
#	242817
#
# Disc length: 3387 seconds
#
# Revision: 0
# Processed by: cddbd v1.4b41PL1 Copyright (c) Steve Scherf et al.
# Submitted via: CDmax 1.5
#
DISCID=f40d3912
DTITLE=Don Williams - best friends
DYEAR=1900
DGENRE=
TTITLE0=YOU´RE MY BEST FRIEND
TTITLE1=I BELIEVE IN YOU
TTITLE2=AMANDA
TTITLE3=THE SHELTER OF YOUR EYES
TTITLE4=SOME BROKEN HEARTS NEVER MEND
TTITLE5=TULSA TIME
TTITLE6=I´M JUST A COUNTRY BOY
TTITLE7=(TURN OUT THE LIGHT AND) LOVE ME TONIGHT
TTITLE8=LOVE IS ON A ROLL
TTITLE9=I RECALL A GYPSY WOMAN
TTITLE10=YEARS FROM NOW
TTITLE11=TILL THE RIVERS ALL RUN DRY
TTITLE12=LISTEN TO THE RADIO
TTITLE13=I WOULDN´T WANT TO LIVE IF YOU DIDN´T LOVE ME
TTITLE14=STAY YOUNG
TTITLE15=LOVE ME OVER AGAIN
TTITLE16=THAT´S THE THING ABOUT LOVE
TTITLE17=IT MUST BE LOVE
EXTD=
EXTT0=
EXTT1=
EXTT2=
EXTT3=
EXTT4=
EXTT5=
EXTT6=
EXTT7=
EXTT8=
EXTT9=
EXTT10=
EXTT11=
EXTT12=
EXTT13=
EXTT14=
EXTT15=
EXTT16=
EXTT17=
PLAYORDER=
